<?xml version="1.0" encoding="utf-8"?><svg xmlns="http://www.w3.org/2000/svg" xmlns:xlink="http://www.w3.org/1999/xlink"><symbol viewBox="0 0 26 26" id="account" xmlns="http://www.w3.org/2000/svg"><path d="M13 13c3.6 0 6.5-2.9 6.5-6.5S16.6 0 13 0 6.5 2.9 6.5 6.5 9.4 13 13 13zm0 3.25c-4.34 0-13 2.18-13 6.5V26h26v-3.25c0-4.32-8.66-6.5-13-6.5z"/></symbol><symbol viewBox="0 0 14 14" id="account-mini" xmlns="http://www.w3.org/2000/svg"><path d="M7 .33C3.32.33.33 3.33.33 7c0 3.68 3 6.67 6.67 6.67 3.68 0 6.67-3 6.67-6.67 0-3.68-3-6.67-6.67-6.67zm0 2c1.1 0 2 .9 2 2s-.9 2-2 2-2-.9-2-2 .9-2 2-2zm0 9.47c-1.67 0-3.14-.85-4-2.15.02-1.32 2.67-2.05 4-2.05s3.98.73 4 2.05a4.783 4.783 0 0 1-4 2.15z"/></symbol><symbol viewBox="0 0 12 8" id="angle-down" xmlns="http://www.w3.org/2000/svg"><path d="M12 2L10.59.59 6 5.17 1.41.59 0 2l6 6z"/></symbol><symbol viewBox="0 0 11 16" id="angle-left" xmlns="http://www.w3.org/2000/svg"><path fill-rule="evenodd" d="M8.67 16l1.88-1.88L4.45 8l6.1-6.12L8.67 0l-8 8z"/></symbol><symbol viewBox="0 0 11 16" id="angle-right" xmlns="http://www.w3.org/2000/svg"><path fill-rule="evenodd" d="M2.33 0L.45 1.88 6.55 8l-6.1 6.12L2.33 16l8-8z"/></symbol><symbol viewBox="0 0 12 8" fill-rule="evenodd" clip-rule="evenodd" stroke-linejoin="round" stroke-miterlimit="1.414" id="angle-up" xmlns="http://www.w3.org/2000/svg"><path d="M12 6.578l-1.41 1.41L6 3.408l-4.59 4.58L0 6.578l6-6 6 6z" fill-rule="nonzero"/></symbol><symbol viewBox="0 0 14 14" fill-rule="evenodd" clip-rule="evenodd" stroke-linejoin="round" stroke-miterlimit="1.414" id="arrow-down" xmlns="http://www.w3.org/2000/svg"><path d="M8.01-1.644v12.222l3.94-3.94a1 1 0 0 1 1.414 1.415L7.707 13.71a1.006 1.006 0 0 1-1.414 0L.636 8.052a1.003 1.003 0 0 1-.293-.706 1.003 1.003 0 1 1 1.708-.708l3.96 3.96V-1.644c0-.548.453-1 1-1 .55 0 1 .452 1 1z"/></symbol><symbol viewBox="0 0 14 14" id="arrow-left" xmlns="http://www.w3.org/2000/svg"><path fill-rule="evenodd" d="M16 8.02H3.778l3.94 3.938c.39.39.39 1.024 0 1.415-.39.39-1.024.39-1.415 0L.647 7.716a1 1 0 0 1 0-1.414L6.303.645A1 1 0 0 1 7.718 2.06l-3.96 3.96H16a1 1 0 1 1 0 2z"/></symbol><symbol viewBox="0 0 16 16" id="arrow-right" xmlns="http://www.w3.org/2000/svg"><path d="M0 9h12.17l-5.59 5.59L8 16l8-8-8-8-1.41 1.41L12.17 7H0z" fill-rule="evenodd"/></symbol><symbol viewBox="0 0 14 14" fill-rule="evenodd" clip-rule="evenodd" stroke-linejoin="round" stroke-miterlimit="1.414" id="arrow-up" xmlns="http://www.w3.org/2000/svg"><path d="M5.99 15.644V3.422l-3.94 3.94A1 1 0 0 1 .636 5.947L6.293.29a1.006 1.006 0 0 1 1.414 0l5.657 5.657c.187.187.293.442.293.707a1.003 1.003 0 1 1-1.708.708l-3.96-3.96v12.242c0 .548-.454 1-1 1-.55 0-1-.452-1-1z"/></symbol><symbol viewBox="0 0 15 15" id="check" xmlns="http://www.w3.org/2000/svg"><path d="M7 .333A6.67 6.67 0 0 0 .333 7 6.67 6.67 0 0 0 7 13.667 6.67 6.67 0 0 0 13.667 7 6.67 6.67 0 0 0 7 .333zm-1.333 10L2.333 7l.94-.94 2.394 2.387 5.06-5.06.94.946-6 6z"/></symbol><symbol viewBox="0 0 24 24" id="checked" xmlns="http://www.w3.org/2000/svg"><path d="M21.333 0H2.667C1.187 0 0 1.2 0 2.667v18.666A2.678 2.678 0 0 0 2.666 24h18.667C22.813 24 24 22.8 24 21.333V2.667A2.678 2.678 0 0 0 21.334 0zM8.875 19.328L2 12.453l1.94-1.94 4.935 4.923L19.31 5l1.94 1.953L8.875 19.328z"/></symbol><symbol viewBox="0 0 14 14" id="close" xmlns="http://www.w3.org/2000/svg"><path d="M14 1.41L12.59 0 7 5.59 1.41 0 0 1.41 5.59 7 0 12.59 1.41 14 7 8.41 12.59 14 14 12.59 8.41 7z"/></symbol><symbol viewBox="0 0 16 16" id="compare" xmlns="http://www.w3.org/2000/svg"><path d="M6 16h4V0H6v16zm-6 0h4V8H0v8zM12 5v11h4V5h-4z"/></symbol><symbol viewBox="0 0 463 422" id="curved-arrows" xmlns="http://www.w3.org/2000/svg"><path d="M417.04 182.18c-7.48 0-13.9-5.34-16.03-12.83C382.85 89.18 312.3 32.53 228.9 32.53c-83.36 0-153.9 56.65-172.1 136.82-2.13 8.56-10.68 13.9-19.23 11.76-8.56-2.13-13.9-10.68-11.76-19.23C47.2 66.73 131.64.47 228.9.47c97.28 0 181.73 66.27 203.1 161.4 2.15 8.55-3.2 17.1-11.75 19.24-1.07 0-2.14 1.08-3.2 1.08z"/><path d="M422.4 186.46c-2.15 0-4.3 0-6.43-1.07l-55.58-23.53c-8.56-3.2-11.77-12.82-8.56-21.38 3.2-8.56 12.82-11.76 21.38-8.56l40.62 17.1 17.1-40.62c3.2-8.55 12.82-11.75 21.38-8.55 8.55 3.2 11.75 12.83 8.55 21.38l-23.52 55.6c-2.14 4.26-4.27 7.47-8.55 8.54-2.14 1.06-4.28 1.06-6.4 1.06zM232.1 421.63c-97.26 0-181.7-66.28-203.1-161.4-2.12-8.57 3.22-17.12 11.77-19.26 8.55-2.13 17.1 3.2 19.24 11.76 18.2 80.17 88.74 136.83 172.1 136.83 83.4 0 153.94-56.66 172.12-136.83 2.13-8.55 10.7-13.9 19.24-11.76 8.55 2.14 13.9 10.7 11.76 19.24-21.38 95.15-104.76 161.43-203.1 161.43z"/><path d="M16.18 323.28c-2.13 0-4.27 0-6.4-1.07C1.2 319-2 309.4 1.2 300.85l23.52-55.6c3.2-8.54 12.82-11.75 21.38-8.54l55.58 23.52c8.55 3.2 11.76 12.82 8.55 21.38-3.2 8.55-12.82 11.75-21.38 8.55l-40.62-17.1-17.1 39.55C29 319 22.6 323.3 16.2 323.3z"/></symbol><symbol viewBox="0 0 513 246" id="delivery-truck" xmlns="http://www.w3.org/2000/svg"><path d="M509.47 123.4l-59.4-67.8c-1.92-2.22-4.72-3.5-7.66-3.5h-49.44V10.25c0-5.63-4.57-10.2-10.2-10.2H172.1c-5.62 0-10.2 4.57-10.2 10.2V24H63.83c-5.63 0-10.2 4.57-10.2 10.2 0 5.64 4.57 10.2 10.2 10.2h98.1v132.2h-59.06c-5.63 0-10.2 4.58-10.2 10.2 0 5.64 4.57 10.2 10.2 10.2h59.05v10.37c0 5.64 4.58 10.2 10.2 10.2h21.3c4.48 16.34 19.46 28.38 37.2 28.38 17.74 0 32.72-12.04 37.2-28.38h136.1c4.48 16.34 19.45 28.38 37.2 28.38s32.7-12.04 37.2-28.38h23.5c5.63 0 10.2-4.56 10.2-10.2V130.1c0-2.46-.9-4.85-2.53-6.7zM230.6 225.55c-10.03 0-18.18-8.16-18.18-18.2s8.15-18.17 18.18-18.17 18.18 8.15 18.18 18.18-8.15 18.18-18.18 18.18zm37.2-28.38c-4.48-16.34-19.46-28.4-37.2-28.4s-32.72 12.06-37.2 28.4h-11.1V20.44h190.25v176.74H267.8zm173.3 28.38c-10.03 0-18.2-8.16-18.2-18.2s8.17-18.17 18.2-18.17c10.02 0 18.18 8.15 18.18 18.18s-8.16 18.18-18.2 18.18zm50.5-28.38h-13.3c-4.5-16.34-19.46-28.4-37.2-28.4s-32.72 12.06-37.2 28.4h-10.95V72.5h44.83l53.82 61.45v63.23zM69.26 176.6h-5.44c-5.63 0-10.2 4.58-10.2 10.2 0 5.64 4.57 10.2 10.2 10.2h5.44c5.63 0 10.2-4.56 10.2-10.2 0-5.62-4.57-10.2-10.2-10.2z"/><path d="M119.5 99.28H10.2c-5.63 0-10.2 4.56-10.2 10.2 0 5.63 4.57 10.2 10.2 10.2h109.3c5.63 0 10.2-4.57 10.2-10.2 0-5.64-4.57-10.2-10.2-10.2z"/></symbol><symbol viewBox="0 0 18 18" id="edit" xmlns="http://www.w3.org/2000/svg"><path d="M0 14.25V18h3.75L14.81 6.94l-3.75-3.75L0 14.25zM17.71 4.04a.996.996 0 0 0 0-1.41L15.37.29a.996.996 0 0 0-1.41 0l-1.83 1.83 3.75 3.75 1.83-1.83z"/><path d="M-3-3h24v24H-3" fill="none"/></symbol><symbol viewBox="0 0 15 12" id="envelope" xmlns="http://www.w3.org/2000/svg"><path d="M13.5 0h-12C.675 0 .008.675.008 1.5L0 10.5c0 .825.675 1.5 1.5 1.5h12c.825 0 1.5-.675 1.5-1.5v-9c0-.825-.675-1.5-1.5-1.5zm0 10.5h-12V3l6 3.75 6-3.75v7.5zm-6-5.25l-6-3.75h12l-6 3.75z"/></symbol><symbol viewBox="0 0 15 15" id="error" xmlns="http://www.w3.org/2000/svg"><path d="M.667 13h14.666L8 .333.667 13zm8-2H7.333V9.667h1.334V11zm0-2.667H7.333V5.667h1.334v2.666z"/></symbol><symbol viewBox="0 0 25 25" id="facebook" xmlns="http://www.w3.org/2000/svg"><defs><path id="ata" d="M0 25h25V0H0z"/></defs><g fill-rule="evenodd"><mask id="atb"><use xlink:href="#ata"/></mask><path d="M25 4.167C25 1.977 23.024 0 20.833 0H4.167C1.977 0 0 1.977 0 4.167v16.666C0 23.023 1.976 25 4.167 25H12.5v-9.444H9.444V11.39H12.5V9.765c0-2.8 2.102-5.32 4.688-5.32h3.367V8.61h-3.367c-.37 0-.8.448-.8 1.118v1.66h4.167v4.167H16.39V25h4.444C23.024 25 25 23.023 25 20.833V4.167z" mask="url(#atb)"/></g></symbol><symbol viewBox="0 0 40 25" id="google-plus" xmlns="http://www.w3.org/2000/svg"><path d="M24.738 14.98c-.98 6.336-5.78 9.968-11.997 9.968-6.984 0-12.647-5.572-12.647-12.445C.093 5.633 5.756.06 12.74.06c3.38 0 6.34 1.187 8.496 3.246l-3.63 3.572c-1.23-1.22-2.912-1.868-4.865-1.868-4.11 0-7.444 3.45-7.444 7.493 0 4.048 3.334 7.397 7.445 7.397 3.448 0 6.057-1.64 6.81-4.92h-6.81V9.982H24.71c.143.806.216 1.648.216 2.52 0 .867-.064 1.692-.186 2.478zm10.757-1.55v4.36h-3.148v-4.36h-4.432v-3.1h4.432V5.97h3.148v4.36h4.432v3.1h-4.432z"/></symbol><symbol viewBox="0 0 18 18" fill-rule="evenodd" clip-rule="evenodd" stroke-linejoin="round" stroke-miterlimit="1.414" id="grid" xmlns="http://www.w3.org/2000/svg"><path d="M0 0h4v4H0V0zm7 0h4v4H7V0zm7 0h4v4h-4V0zM0 7h4v4H0V7zm7 0h4v4H7V7zm7 0h4v4h-4V7zM0 14h4v4H0v-4zm7 0h4v4H7v-4zm7 0h4v4h-4v-4z"/><path fill="none" d="M-7-7h32v32H-7z"/></symbol><symbol viewBox="0 0 14 13" id="heart" xmlns="http://www.w3.org/2000/svg"><path d="M10.15 0C8.93 0 7.766.574 7 1.488A4.115 4.115 0 0 0 3.853 0C1.702 0 .002 1.7.002 3.9c0 2.68 2.38 4.86 5.98 8.186l1.02.914 1.016-.935C11.618 8.77 14 6.58 14 3.9 14 1.7 12.3 0 10.15 0zM7.073 11.023L7 11.087l-.073-.064C3.6 7.973 1.407 5.953 1.407 3.9c0-1.423 1.05-2.486 2.445-2.486 1.08 0 2.13.7 2.498 1.68h1.312c.356-.968 1.406-1.67 2.487-1.67 1.394 0 2.444 1.063 2.444 2.488 0 2.04-2.204 4.06-5.52 7.12v-.01z"/></symbol><symbol viewBox="0 0 25 25" id="instagram" xmlns="http://www.w3.org/2000/svg"><path d="M16.144 6.746H8.856c-1.164 0-2.11.946-2.11 2.11v7.288c0 1.163.946 2.11 2.11 2.11h7.288c1.163 0 2.11-.946 2.11-2.11V8.856c0-1.164-.946-2.11-2.11-2.11zM12.3 16.22a3.923 3.923 0 0 1-3.917-3.92A3.923 3.923 0 0 1 12.3 8.384a3.923 3.923 0 0 1 3.92 3.918c0 2.162-1.76 3.92-3.92 3.92zm4.047-7.027a.928.928 0 0 1 0-1.855.928.928 0 0 1 0 1.855z"/><path d="M12.302 9.92a2.384 2.384 0 0 0-2.38 2.38 2.384 2.384 0 0 0 2.38 2.383 2.384 2.384 0 0 0 2.38-2.382 2.384 2.384 0 0 0-2.38-2.38z"/><path d="M12.466 0C5.582 0 0 5.582 0 12.466c0 6.885 5.582 12.467 12.466 12.467 6.885 0 12.467-5.582 12.467-12.467C24.933 5.582 19.35 0 12.466 0zm7.5 16.216A3.787 3.787 0 0 1 16.182 20H8.75a3.787 3.787 0 0 1-3.783-3.784V8.784A3.788 3.788 0 0 1 8.75 5h7.43a3.787 3.787 0 0 1 3.784 3.784v7.432z"/></symbol><symbol viewBox="0 0 18 17" id="linkedin" xmlns="http://www.w3.org/2000/svg"><path fill-rule="evenodd" d="M18 10.423v6.573h-3.858v-6.133c0-1.54-.558-2.592-1.954-2.592-1.067 0-1.7.71-1.98 1.396-.102.245-.128.586-.128.93v6.4H6.22s.053-10.386 0-11.463h3.86v1.625l-.026.037h.026v-.037c.512-.78 1.428-1.894 3.477-1.894 2.54 0 4.443 1.64 4.443 5.16zM2.184.006C.864.006 0 .862 0 1.986c0 1.1.84 1.982 2.133 1.982h.025c1.346 0 2.183-.88 2.183-1.982C4.318.862 3.506.006 2.186.006zM.23 16.996h3.857V5.532H.23v11.464z"/></symbol><symbol viewBox="0 0 18 18" fill-rule="evenodd" clip-rule="evenodd" stroke-linejoin="round" stroke-miterlimit="1.414" id="list" xmlns="http://www.w3.org/2000/svg"><path d="M0 0h4v4H0V0zm7 0h11v4H7V0zM0 7h4v4H0V7zm7 0h11v4H7V7zm-7 7h4v4H0v-4zm7 0h11v4H7v-4z"/><path fill="none" d="M-7-7h32v32H-7z"/></symbol><symbol viewBox="0 0 100 100" id="loader" xmlns="http://www.w3.org/2000/svg"><path fill="none" class="babk" d="M0 0h100v100H0z"/><path fill="none" class="babk" d="M0 0h100v100H0z"/><rect x="46.5" y="40" width="7" height="20" rx="5" ry="5" transform="translate(0 -30)"><animate attributeName="opacity" from="1" to="0" dur="0.7s" begin="0s" repeatCount="indefinite"/></rect><rect x="46.5" y="40" width="7" height="20" rx="5" ry="5" transform="rotate(36 96.165 65)"><animate attributeName="opacity" from="1" to="0" dur="0.7s" begin="0.06999999999999999s" repeatCount="indefinite"/></rect><rect x="46.5" y="40" width="7" height="20" rx="5" ry="5" transform="rotate(72 70.646 65)"><animate attributeName="opacity" from="1" to="0" dur="0.7s" begin="0.13999999999999999s" repeatCount="indefinite"/></rect><rect x="46.5" y="40" width="7" height="20" rx="5" ry="5" transform="rotate(108 60.898 65)"><animate attributeName="opacity" from="1" to="0" dur="0.7s" begin="0.20999999999999996s" repeatCount="indefinite"/></rect><rect x="46.5" y="40" width="7" height="20" rx="5" ry="5" transform="rotate(144 54.874 65)"><animate attributeName="opacity" from="1" to="0" dur="0.7s" begin="0.27999999999999997s" repeatCount="indefinite"/></rect><rect x="46.5" y="40" width="7" height="20" rx="5" ry="5" transform="rotate(180 50 65)"><animate attributeName="opacity" from="1" to="0" dur="0.7s" begin="0.35s" repeatCount="indefinite"/></rect><rect x="46.5" y="40" width="7" height="20" rx="5" ry="5" transform="rotate(-144 45.126 65)"><animate attributeName="opacity" from="1" to="0" dur="0.7s" begin="0.41999999999999993s" repeatCount="indefinite"/></rect><rect x="46.5" y="40" width="7" height="20" rx="5" ry="5" transform="rotate(-108 39.102 65)"><animate attributeName="opacity" from="1" to="0" dur="0.7s" begin="0.48999999999999994s" repeatCount="indefinite"/></rect><rect x="46.5" y="40" width="7" height="20" rx="5" ry="5" transform="rotate(-72 29.354 65)"><animate attributeName="opacity" from="1" to="0" dur="0.7s" begin="0.5599999999999999s" repeatCount="indefinite"/></rect><rect x="46.5" y="40" width="7" height="20" rx="5" ry="5" transform="rotate(-36 3.835 65)"><animate attributeName="opacity" from="1" to="0" dur="0.7s" begin="0.63s" repeatCount="indefinite"/></rect></symbol><symbol viewBox="0 0 14 2" id="minus" xmlns="http://www.w3.org/2000/svg"><path d="M14 2H0V0h14z"/></symbol><symbol viewBox="0 0 20 15" id="mobile-menu" xmlns="http://www.w3.org/2000/svg"><rect width="19.2" height="2.4" rx="1.2"/><rect width="19.2" height="2.4" y="6" rx="1.2"/><rect width="19.2" height="2.4" y="12" rx="1.2"/></symbol><symbol viewBox="0 0 25 25" id="phone" xmlns="http://www.w3.org/2000/svg"><path d="M5.028 10.71c2 3.892 5.222 7.07 9.153 9.063l3.056-3.026a1.39 1.39 0 0 1 1.417-.33 15.99 15.99 0 0 0 4.958.784c.765 0 1.39.62 1.39 1.376v4.8c0 .755-.625 1.374-1.39 1.374C10.57 24.75 0 14.286 0 1.375 0 .62.625 0 1.39 0h4.86c.764 0 1.39.62 1.39 1.375 0 1.72.277 3.37.79 4.91a1.37 1.37 0 0 1-.347 1.4l-3.055 3.026z"/></symbol><symbol viewBox="0 0 13 13" id="plus" xmlns="http://www.w3.org/2000/svg"><path fill-rule="evenodd" d="M13 7H7v6H6V7H0V6h6V0h1v6h6v1z"/></symbol><symbol viewBox="0 0 426.667 426.667" id="question-mark" xmlns="http://www.w3.org/2000/svg"><path d="M192 298.667h42.667v42.667H192z"/><path d="M213.333 0C95.513 0 0 95.513 0 213.333s95.513 213.333 213.333 213.333 213.333-95.513 213.333-213.333S331.154 0 213.333 0zm0 388.053c-96.495 0-174.72-78.225-174.72-174.72s78.225-174.72 174.72-174.72c96.446.117 174.602 78.273 174.72 174.72 0 96.496-78.224 174.72-174.72 174.72z"/><path d="M296.32 150.4c-10.974-45.833-57.025-74.091-102.858-63.117-38.533 9.226-65.646 43.762-65.462 83.384h42.667c2.003-23.564 22.729-41.043 46.293-39.04s41.043 22.729 39.04 46.293c-4.358 21.204-23.38 36.169-45.013 35.413-10.486 0-18.987 8.501-18.987 18.987v45.013h42.667v-24.32c45.12-11.635 72.565-57.312 61.653-102.613z"/></symbol><symbol viewBox="0 0 14 18" id="remove" xmlns="http://www.w3.org/2000/svg"><path d="M1 16c0 1.1.9 2 2 2h8c1.1 0 2-.9 2-2V4H1v12zM14 1h-3.5l-1-1h-5l-1 1H0v2h14V1z"/><path d="M-5-3h24v24H-5" fill="none"/></symbol><symbol viewBox="0 0 17 16" id="search" xmlns="http://www.w3.org/2000/svg"><path d="M7.458 14C3.43 14 .168 10.866.168 7s3.262-7 7.29-7c4.027 0 7.292 3.134 7.292 7s-3.265 7-7.292 7zm0-2c2.877 0 5.21-2.24 5.21-5s-2.333-5-5.21-5C4.582 2 2.25 4.24 2.25 7s2.332 5 5.208 5z"/><path d="M12.028 9.912l4.42 4.42-1.415 1.413-4.42-4.42z"/></symbol><symbol viewBox="0 0 478.703 478.703" id="settings" xmlns="http://www.w3.org/2000/svg"><path d="M454.2 189.1l-33.6-5.7c-3.5-11.3-8-22.2-13.5-32.6l19.8-27.7c8.4-11.8 7.1-27.9-3.2-38.1l-29.8-29.8c-5.6-5.6-13-8.7-20.9-8.7-6.2 0-12.1 1.9-17.1 5.5l-27.8 19.8c-10.8-5.7-22.1-10.4-33.8-13.9l-5.6-33.2A29.54 29.54 0 0 0 259.5 0h-42.1c-14.5 0-26.8 10.4-29.2 24.7l-5.8 34c-11.2 3.5-22.1 8.1-32.5 13.7l-27.5-19.8c-5-3.6-11-5.5-17.2-5.5-7.9 0-15.4 3.1-20.9 8.7L54.4 85.6c-10.2 10.2-11.6 26.3-3.2 38.1l20 28.1c-5.5 10.5-9.9 21.4-13.3 32.7l-33.2 5.6A29.54 29.54 0 0 0 0 219.3v42.1c0 14.5 10.4 26.8 24.7 29.2l34 5.8c3.5 11.2 8.1 22.1 13.7 32.5l-19.7 27.4c-8.4 11.8-7.1 27.9 3.2 38.1l29.8 29.8c5.6 5.6 13 8.7 20.9 8.7 6.2 0 12.1-1.9 17.1-5.5l28.1-20c10.1 5.3 20.7 9.6 31.6 13L189 454a29.54 29.54 0 0 0 29.2 24.7h42.2c14.5 0 26.8-10.4 29.2-24.7l5.7-33.6c11.3-3.5 22.2-8 32.6-13.5l27.7 19.8c5 3.6 11 5.5 17.2 5.5 7.9 0 15.3-3.1 20.9-8.7l29.8-29.8c10.2-10.2 11.6-26.3 3.2-38.1l-19.8-27.8c5.5-10.5 10.1-21.4 13.5-32.6l33.6-5.6a29.54 29.54 0 0 0 24.7-29.2v-42.1c.2-14.5-10.2-26.8-24.5-29.2zm-2.3 71.3c0 1.3-.9 2.4-2.2 2.6l-42 7c-5.3.9-9.5 4.8-10.8 9.9-3.8 14.7-9.6 28.8-17.4 41.9-2.7 4.6-2.5 10.3.6 14.7l24.7 34.8c.7 1 .6 2.5-.3 3.4l-29.8 29.8c-.7.7-1.4.8-1.9.8-.6 0-1.1-.2-1.5-.5l-34.7-24.7c-4.3-3.1-10.1-3.3-14.7-.6-13.1 7.8-27.2 13.6-41.9 17.4-5.2 1.3-9.1 5.6-9.9 10.8l-7.1 42c-.2 1.3-1.3 2.2-2.6 2.2h-42.1c-1.3 0-2.4-.9-2.6-2.2l-7-42c-.9-5.3-4.8-9.5-9.9-10.8-14.3-3.7-28.1-9.4-41-16.8-2.1-1.2-4.5-1.8-6.8-1.8-2.7 0-5.5.8-7.8 2.5l-35 24.9c-.5.3-1 .5-1.5.5-.4 0-1.2-.1-1.9-.8L75 375.6c-.9-.9-1-2.3-.3-3.4l24.6-34.5c3.1-4.4 3.3-10.2.6-14.8-7.8-13-13.8-27.1-17.6-41.8-1.4-5.1-5.6-9-10.8-9.9L29.2 264c-1.3-.2-2.2-1.3-2.2-2.6v-42.1c0-1.3.9-2.4 2.2-2.6l41.7-7c5.3-.9 9.6-4.8 10.9-10 3.7-14.7 9.4-28.9 17.1-42 2.7-4.6 2.4-10.3-.7-14.6l-24.9-35c-.7-1-.6-2.5.3-3.4l29.8-29.8c.7-.7 1.4-.8 1.9-.8.6 0 1.1.2 1.5.5l34.5 24.6c4.4 3.1 10.2 3.3 14.8.6 13-7.8 27.1-13.8 41.8-17.6 5.1-1.4 9-5.6 9.9-10.8l7.2-42.3c.2-1.3 1.3-2.2 2.6-2.2h42.1c1.3 0 2.4.9 2.6 2.2l7 41.7c.9 5.3 4.8 9.6 10 10.9 15.1 3.8 29.5 9.7 42.9 17.6 4.6 2.7 10.3 2.5 14.7-.6l34.5-24.8c.5-.3 1-.5 1.5-.5.4 0 1.2.1 1.9.8l29.8 29.8c.9.9 1 2.3.3 3.4l-24.7 34.7c-3.1 4.3-3.3 10.1-.6 14.7 7.8 13.1 13.6 27.2 17.4 41.9 1.3 5.2 5.6 9.1 10.8 9.9l42 7.1c1.3.2 2.2 1.3 2.2 2.6v42.1h-.1z"/><path d="M239.4 136c-57 0-103.3 46.3-103.3 103.3s46.3 103.3 103.3 103.3 103.3-46.3 103.3-103.3S296.4 136 239.4 136zm0 179.6c-42.1 0-76.3-34.2-76.3-76.3s34.2-76.3 76.3-76.3 76.3 34.2 76.3 76.3-34.2 76.3-76.3 76.3z"/></symbol><symbol viewBox="0 0 19 23" id="shield" xmlns="http://www.w3.org/2000/svg"><g fill-rule="evenodd"><path d="M9.403 20.837c-8.042-2.92-7.92-9.32-7.812-14.973l.018-.99C4.746 4.74 7.255 3.79 9.403 1.918 11.55 3.788 14.06 4.74 17.2 4.872c.003.323.01.65.016.99.107 5.654.23 12.053-7.813 14.974m9.38-15.003a88.001 88.001 0 0 1-.023-1.728.783.783 0 0 0-.784-.783c-3.35 0-5.9-.963-8.027-3.03a.783.783 0 0 0-1.093 0C6.73 2.36 4.18 3.322.83 3.322a.783.783 0 0 0-.783.784c0 .553-.01 1.124-.023 1.728C-.083 11.457-.23 19.16 9.146 22.41a.784.784 0 0 0 .513 0c9.376-3.25 9.23-10.952 9.122-16.575"/><path d="M12.1 8.54l-3.78 3.78-1.614-1.612a.783.783 0 1 0-1.108 1.107l2.167 2.168a.78.78 0 0 0 1.108 0l4.335-4.335A.783.783 0 1 0 12.1 8.54"/></g></symbol><symbol viewBox="0 0 33 21" id="shipping-time-truck" xmlns="http://www.w3.org/2000/svg"><g fill-rule="evenodd"><path d="M31.685 17.664h-.857a2.49 2.49 0 0 0-2.398-1.83 2.49 2.49 0 0 0-2.398 1.83h-.705V9.63h2.89l3.468 3.96v4.075zm-3.255 1.83a1.173 1.173 0 0 1-1.172-1.173 1.173 1.173 0 0 1 2.344 0c0 .648-.526 1.173-1.172 1.173zm-11.17-1.83a2.49 2.49 0 0 0-2.397-1.83 2.49 2.49 0 0 0-2.398 1.83h-.715v-6.99a5.335 5.335 0 0 0 4.61-4.4h7.652v11.39h-6.75zm-2.397 1.83a1.173 1.173 0 0 1-1.172-1.173 1.173 1.173 0 0 1 2.345 0c0 .648-.526 1.173-1.172 1.173zM7.1 5.388a4.015 4.015 0 0 1 4.01-4.01 4.015 4.015 0 0 1 4.01 4.01 4.014 4.014 0 0 1-4.01 4.01A4.014 4.014 0 0 1 7.1 5.39zm25.737 7.52l-3.828-4.37a.658.658 0 0 0-.495-.225h-3.188V5.616a.657.657 0 0 0-.657-.658h-8.255A5.33 5.33 0 0 0 11.11.064 5.33 5.33 0 0 0 5.785 5.39a5.33 5.33 0 0 0 4.65 5.28v5.67H6.63a.657.657 0 1 0 0 1.314h3.806v.668c0 .364.294.658.657.658h1.372a2.49 2.49 0 0 0 2.398 1.83 2.49 2.49 0 0 0 2.398-1.83h8.772a2.49 2.49 0 0 0 2.398 1.83 2.49 2.49 0 0 0 2.398-1.83h1.515a.657.657 0 0 0 .657-.66v-4.98a.658.658 0 0 0-.163-.432zm-28.373 3.43h-.35a.657.657 0 1 0 0 1.315h.35a.657.657 0 1 0 0-1.314m-.35-9.837H1.49a.657.657 0 1 0 0 1.314h2.62a.657.657 0 1 0 0-1.314"/><path d="M7.702 11.354H.657a.657.657 0 1 0 0 1.315h7.045a.657.657 0 1 0 0-1.316m5-5.3l-.935-.937V2.312a.657.657 0 1 0-1.315 0V5.39c0 .174.07.34.193.464l1.128 1.128a.655.655 0 0 0 .93 0 .657.657 0 0 0 0-.93"/></g></symbol><symbol viewBox="0 0 26 26" id="shopping-cart" xmlns="http://www.w3.org/2000/svg"><path d="M7.8 20.8a2.597 2.597 0 0 0-2.587 2.6c0 1.43 1.157 2.6 2.587 2.6 1.43 0 2.6-1.17 2.6-2.6 0-1.43-1.17-2.6-2.6-2.6zM0 0v2.6h2.6l4.68 9.867-1.755 3.185A2.513 2.513 0 0 0 5.2 16.9c0 1.43 1.17 2.6 2.6 2.6h15.6v-2.6H8.346a.322.322 0 0 1-.325-.325l.04-.156 1.17-2.12h9.685c.975 0 1.833-.533 2.275-1.34l4.654-8.436A1.304 1.304 0 0 0 24.7 2.6H5.473L4.25 0H0zm20.8 20.8a2.597 2.597 0 0 0-2.587 2.6c0 1.43 1.157 2.6 2.587 2.6 1.43 0 2.6-1.17 2.6-2.6 0-1.43-1.17-2.6-2.6-2.6z"/></symbol><symbol viewBox="0 0 12 12" id="signin" xmlns="http://www.w3.org/2000/svg"><path d="M4.727 8.393l.94.94L9 6 5.667 2.667l-.94.94 1.72 1.726H0v1.334h6.447l-1.72 1.726zM10.667 0H1.333C.593 0 0 .6 0 1.333V4h1.333V1.333h9.334v9.334H1.333V8H0v2.667C0 11.4.593 12 1.333 12h9.334C11.4 12 12 11.4 12 10.667V1.333C12 .6 11.4 0 10.667 0z"/></symbol><symbol viewBox="0 0 20 19" id="star" xmlns="http://www.w3.org/2000/svg"><path fill="none" d="M-2-2h24v24H-2z"/><path d="M10 15.27L16.18 19l-1.64-7.03L20 7.24l-7.19-.61L10 0 7.19 6.63 0 7.24l5.46 4.73L3.82 19 10 15.27z"/></symbol><symbol viewBox="0 0 20 19" id="star-border" xmlns="http://www.w3.org/2000/svg"><path fill="none" d="M-2-2h24v24H-2z"/><path d="M20 7.24l-7.19-.62L10 0 7.19 6.63 0 7.24l5.46 4.73L3.82 19 10 15.27 16.18 19l-1.63-7.03L20 7.24zM10 13.4l-3.76 2.27 1-4.28-3.32-2.88 4.38-.38L10 4.1l1.71 4.04 4.38.38-3.32 2.88 1 4.28L10 13.4z"/></symbol><symbol viewBox="0 0 19 16" id="twitter" xmlns="http://www.w3.org/2000/svg"><path fill-rule="evenodd" d="M18.476.3c-.754.464-1.59.8-2.477.98A3.837 3.837 0 0 0 13.153.007c-2.153 0-3.9 1.808-3.9 4.037 0 .316.036.625.102.92-3.24-.17-6.11-1.777-8.033-4.22a4.124 4.124 0 0 0-.528 2.03c0 1.402.69 2.638 1.734 3.36a3.763 3.763 0 0 1-1.766-.506v.05c0 1.956 1.343 3.588 3.126 3.96-.326.09-.67.142-1.026.142-.252 0-.495-.028-.734-.075.496 1.604 1.935 2.772 3.64 2.805a7.648 7.648 0 0 1-5.77 1.672 10.76 10.76 0 0 0 5.975 1.814c7.17 0 11.09-6.152 11.09-11.488l-.013-.523a8.007 8.007 0 0 0 1.948-2.087c-.7.32-1.45.54-2.238.636A4.037 4.037 0 0 0 18.474.301z"/></symbol><symbol viewBox="0 0 26 26" id="user" xmlns="http://www.w3.org/2000/svg"><path d="M13 13a6.5 6.5 0 1 0 0-13 6.498 6.498 0 0 0-6.5 6.5A6.5 6.5 0 0 0 13 13zm0 3.25c-4.34 0-13 2.177-13 6.5V26h26v-3.25c0-4.323-8.66-6.5-13-6.5z"/></symbol><symbol viewBox="0 0 15 15" id="warning" xmlns="http://www.w3.org/2000/svg"><path d="M7 .333A6.67 6.67 0 0 0 .333 7 6.67 6.67 0 0 0 7 13.667 6.67 6.67 0 0 0 13.667 7 6.67 6.67 0 0 0 7 .333zm.667 10H6.333V9h1.334v1.333zm0-2.666H6.333v-4h1.334v4z"/></symbol><symbol viewBox="0 0 21 25" id="youtube" xmlns="http://www.w3.org/2000/svg"><path d="M17.53 18.287h-1.366l.007-.797c0-.354.29-.644.645-.644h.087c.355 0 .645.29.645.644l-.016.797zm-5.12-1.708c-.346 0-.63.232-.63.52v3.874c0 .286.284.52.63.52.348 0 .63-.234.63-.52V17.1c0-.288-.282-.52-.63-.52zm8.314-2.17v7.373c0 1.77-1.526 3.216-3.39 3.216H3.39C1.525 25 0 23.552 0 21.783V14.41c0-1.768 1.525-3.215 3.39-3.215h13.943c1.865 0 3.39 1.447 3.39 3.216zM4.32 22.585V14.82h1.727v-1.15l-4.607-.01v1.13l1.438.006v7.79H4.32zm5.18-6.61H8.06v4.147c0 .6.036.9-.003 1.006-.117.32-.643.662-.85.034-.033-.11-.003-.442-.003-1.012l-.006-4.175H5.766l.004 4.11c0 .63-.014 1.1.005 1.314.035.377.023.816.37 1.067.65.47 1.892-.07 2.203-.74l-.003.856h1.157v-6.607zm4.61 4.75l-.003-3.453c0-1.315-.98-2.103-2.308-1.04l.003-2.565-1.44.002-.006 8.857 1.184-.017.11-.55c1.51 1.393 2.462.438 2.46-1.236zm4.51-.458l-1.08.006-.003.146v.606a.59.59 0 0 1-.59.588h-.212a.592.592 0 0 1-.59-.588v-1.594h2.473v-.937c0-.684-.017-1.368-.074-1.76-.177-1.236-1.904-1.433-2.777-.8a1.635 1.635 0 0 0-.605.82c-.122.355-.183.84-.183 1.46v2.057c0 3.42 4.132 2.938 3.64-.005zM13.08 9.092c.074.182.19.33.346.44a1 1 0 0 0 .59.165.914.914 0 0 0 .552-.173 1.33 1.33 0 0 0 .404-.52l-.027.57h1.606v-6.87H15.29V8.05c0 .29-.237.526-.527.526a.53.53 0 0 1-.525-.526V2.706h-1.32v4.63c0 .59.01.985.028 1.184a2 2 0 0 0 .138.572zM8.21 5.214c0-.66.055-1.174.164-1.545.11-.37.305-.67.59-.893.284-.225.647-.338 1.09-.338.37 0 .69.072.955.216.265.144.47.332.614.563.146.23.245.47.297.714.055.248.08.62.08 1.124v1.736c0 .637-.024 1.106-.073 1.403a2.23 2.23 0 0 1-.317.834c-.16.257-.366.45-.617.57a1.964 1.964 0 0 1-.87.186c-.368 0-.676-.05-.93-.158A1.276 1.276 0 0 1 8.6 9.15a2.12 2.12 0 0 1-.3-.77c-.06-.3-.09-.752-.09-1.354V5.214zm1.26 2.728c0 .39.288.706.64.706.35 0 .637-.317.637-.706V4.286c0-.388-.287-.706-.638-.706-.35 0-.64.318-.64.706v3.656zM5.024 9.787H6.54V4.52L8.33.01H6.674l-.952 3.35L4.757 0h-1.64L5.02 4.523l.003 5.264z"/></symbol></svg>